<svg width="184" height="48" viewBox="0 0 184 48" fill="none" xmlns="http://www.w3.org/2000/svg" role="img" aria-labelledby="title desc">
  <title id="title">Sovra brand mark</title>
  <desc id="desc">Sovra icon and wordmark.</desc>
  <defs>
    <linearGradient id="orb" x1="0" y1="0" x2="1" y2="1">
      <stop offset="0" stop-color="#0EAF8F"/>
      <stop offset="1" stop-color="#0B7A63"/>
    </linearGradient>
  </defs>
  <rect x="0.5" y="0.5" width="46.5" height="46.5" rx="12" fill="url(#orb)" stroke="#0A5A49"/>
  <path d="M11.2 27.3V15.7C11.2 13.75 12.79 12.16 14.74 12.16H32.26C34.21 12.16 35.8 13.75 35.8 15.7V31.9C35.8 33.85 34.21 35.44 32.26 35.44H18.86L13.36 40.95C12.42 41.89 10.82 41.23 10.82 39.89V27.3H11.2Z" fill="white"/>
  <path d="M18.52 20.93H28.48" stroke="#0B7A63" stroke-width="2.55" stroke-linecap="round"/>
  <path d="M18.52 26.85H25.07" stroke="#0B7A63" stroke-width="2.55" stroke-linecap="round"/>
  <path d="M64.57 31V16.4H73.87C77.49 16.4 79.51 18.28 79.51 20.97C79.51 22.92 78.43 24.37 76.41 24.95L79.82 31H75.67L72.75 25.55H68.61V31H64.57ZM68.61 22.49H73.35C74.75 22.49 75.45 21.86 75.45 20.81C75.45 19.78 74.75 19.15 73.35 19.15H68.61V22.49Z" fill="#122234"/>
  <path d="M81.42 25.51C81.42 21.91 83.95 19.74 87.65 19.74C91.37 19.74 93.9 21.91 93.9 25.51C93.9 29.09 91.37 31.26 87.65 31.26C83.95 31.26 81.42 29.09 81.42 25.51ZM85.33 25.51C85.33 27.3 86.24 28.34 87.65 28.34C89.08 28.34 89.99 27.3 89.99 25.51C89.99 23.7 89.08 22.66 87.65 22.66C86.24 22.66 85.33 23.7 85.33 25.51Z" fill="#122234"/>
  <path d="M95.17 25.51C95.17 21.97 97.53 19.74 101.14 19.74C104.02 19.74 106.13 21.08 106.85 23.27L103.4 24.23C103.02 23.22 102.21 22.66 101.14 22.66C99.78 22.66 99.01 23.68 99.01 25.51C99.01 27.35 99.78 28.34 101.14 28.34C102.25 28.34 103.04 27.76 103.4 26.75L106.85 27.71C106.13 29.93 104.02 31.26 101.14 31.26C97.53 31.26 95.17 29.07 95.17 25.51Z" fill="#122234"/>
  <path d="M108.55 31L112.43 19.99H116.73L120.64 31H116.73L116.08 28.93H113.07L112.41 31H108.55ZM113.73 26.5H115.39L114.57 23.89L113.73 26.5Z" fill="#122234"/>
  <path d="M121.63 31V16.4H125.66V27.98H132.16V31H121.63Z" fill="#122234"/>
  <path d="M135.74 31L130.97 16.4H135.26L138.2 26.63L141.14 16.4H145.34L140.57 31H135.74Z" fill="#122234"/>
</svg>
